<mxfile host="Electron" agent="Mozilla/5.0 (Windows NT 10.0; Win64; x64) AppleWebKit/537.36 (KHTML, like Gecko) draw.io/28.0.6 Chrome/138.0.7204.100 Electron/37.2.3 Safari/537.36" version="28.0.6">
  <diagram name="Page-1" id="JjovNX3jiftAqNEHp2Kg">
    <mxGraphModel dx="2916" dy="1249" grid="1" gridSize="10" guides="1" tooltips="1" connect="1" arrows="1" fold="1" page="1" pageScale="1" pageWidth="850" pageHeight="1100" math="0" shadow="0">
      <root>
        <mxCell id="0" />
        <mxCell id="1" parent="0" />
        <mxCell id="IHbQ26XFbmx4IzHMSujC-1" value="&lt;font style=&quot;font-size: 30px;&quot;&gt;Data Flow Diagram&lt;/font&gt;" style="text;html=1;align=center;verticalAlign=middle;whiteSpace=wrap;rounded=0;fontSize=24;fontStyle=1" parent="1" vertex="1">
          <mxGeometry x="-190" y="190" width="280" height="30" as="geometry" />
        </mxCell>
        <mxCell id="IHbQ26XFbmx4IzHMSujC-2" value="" style="rounded=0;whiteSpace=wrap;html=1;fillColor=none;strokeColor=#d6b656;" parent="1" vertex="1">
          <mxGeometry x="70" y="370" width="190" height="430" as="geometry" />
        </mxCell>
        <mxCell id="IHbQ26XFbmx4IzHMSujC-5" value="" style="rounded=0;whiteSpace=wrap;html=1;fillColor=none;strokeColor=#CCCCCC;dashed=1;" parent="1" vertex="1">
          <mxGeometry x="-190" y="300" width="190" height="500" as="geometry" />
        </mxCell>
        <mxCell id="IHbQ26XFbmx4IzHMSujC-6" value="Sources" style="rounded=1;whiteSpace=wrap;html=1;fontSize=24;strokeColor=none;" parent="1" vertex="1">
          <mxGeometry x="-155" y="280" width="120" height="40" as="geometry" />
        </mxCell>
        <mxCell id="IHbQ26XFbmx4IzHMSujC-16" style="edgeStyle=orthogonalEdgeStyle;rounded=0;orthogonalLoop=1;jettySize=auto;html=1;entryX=0;entryY=0.5;entryDx=0;entryDy=0;" parent="1" source="IHbQ26XFbmx4IzHMSujC-7" target="IHbQ26XFbmx4IzHMSujC-13" edge="1">
          <mxGeometry relative="1" as="geometry" />
        </mxCell>
        <mxCell id="IHbQ26XFbmx4IzHMSujC-17" style="edgeStyle=orthogonalEdgeStyle;rounded=0;orthogonalLoop=1;jettySize=auto;html=1;entryX=0;entryY=0.5;entryDx=0;entryDy=0;" parent="1" source="IHbQ26XFbmx4IzHMSujC-7" target="IHbQ26XFbmx4IzHMSujC-14" edge="1">
          <mxGeometry relative="1" as="geometry" />
        </mxCell>
        <mxCell id="IHbQ26XFbmx4IzHMSujC-18" style="edgeStyle=orthogonalEdgeStyle;rounded=0;orthogonalLoop=1;jettySize=auto;html=1;entryX=0;entryY=0.5;entryDx=0;entryDy=0;" parent="1" source="IHbQ26XFbmx4IzHMSujC-7" target="IHbQ26XFbmx4IzHMSujC-15" edge="1">
          <mxGeometry relative="1" as="geometry" />
        </mxCell>
        <mxCell id="IHbQ26XFbmx4IzHMSujC-7" value="&lt;b&gt;&lt;font style=&quot;font-size: 20px;&quot;&gt;CRM&lt;/font&gt;&lt;/b&gt;" style="image;aspect=fixed;html=1;points=[];align=center;fontSize=12;image=img/lib/azure2/general/Folder_Blank.svg;" parent="1" vertex="1">
          <mxGeometry x="-129.5" y="451" width="69" height="56.00000000000001" as="geometry" />
        </mxCell>
        <mxCell id="IHbQ26XFbmx4IzHMSujC-22" style="edgeStyle=orthogonalEdgeStyle;rounded=0;orthogonalLoop=1;jettySize=auto;html=1;entryX=0;entryY=0.5;entryDx=0;entryDy=0;" parent="1" source="IHbQ26XFbmx4IzHMSujC-8" target="IHbQ26XFbmx4IzHMSujC-21" edge="1">
          <mxGeometry relative="1" as="geometry" />
        </mxCell>
        <mxCell id="IHbQ26XFbmx4IzHMSujC-23" style="edgeStyle=orthogonalEdgeStyle;rounded=0;orthogonalLoop=1;jettySize=auto;html=1;entryX=0;entryY=0.5;entryDx=0;entryDy=0;" parent="1" source="IHbQ26XFbmx4IzHMSujC-8" target="IHbQ26XFbmx4IzHMSujC-20" edge="1">
          <mxGeometry relative="1" as="geometry" />
        </mxCell>
        <mxCell id="IHbQ26XFbmx4IzHMSujC-24" style="edgeStyle=orthogonalEdgeStyle;rounded=0;orthogonalLoop=1;jettySize=auto;html=1;entryX=0;entryY=0.5;entryDx=0;entryDy=0;" parent="1" source="IHbQ26XFbmx4IzHMSujC-8" target="IHbQ26XFbmx4IzHMSujC-19" edge="1">
          <mxGeometry relative="1" as="geometry" />
        </mxCell>
        <mxCell id="IHbQ26XFbmx4IzHMSujC-8" value="&lt;b&gt;&lt;font style=&quot;font-size: 20px;&quot;&gt;ERP&lt;/font&gt;&lt;/b&gt;" style="image;aspect=fixed;html=1;points=[];align=center;fontSize=12;image=img/lib/azure2/general/Folder_Blank.svg;" parent="1" vertex="1">
          <mxGeometry x="-120" y="661" width="69" height="56.00000000000001" as="geometry" />
        </mxCell>
        <mxCell id="IHbQ26XFbmx4IzHMSujC-12" value="&lt;font style=&quot;color: rgb(0, 0, 0); font-size: 20px;&quot;&gt;&lt;b&gt;Bronze Layer&lt;/b&gt;&lt;/font&gt;" style="rounded=1;whiteSpace=wrap;html=1;fillColor=#fff2cc;strokeColor=#d6b656;" parent="1" vertex="1">
          <mxGeometry x="70" y="300" width="190" height="60" as="geometry" />
        </mxCell>
        <mxCell id="5i8vRmKeqVwwdkVwR9yD-9" style="edgeStyle=orthogonalEdgeStyle;rounded=0;orthogonalLoop=1;jettySize=auto;html=1;entryX=0;entryY=0.5;entryDx=0;entryDy=0;" parent="1" source="IHbQ26XFbmx4IzHMSujC-13" target="5i8vRmKeqVwwdkVwR9yD-3" edge="1">
          <mxGeometry relative="1" as="geometry" />
        </mxCell>
        <mxCell id="IHbQ26XFbmx4IzHMSujC-13" value="&lt;font style=&quot;font-size: 16px;&quot; color=&quot;#000000&quot;&gt;&lt;b style=&quot;&quot;&gt;crm_sales_detalis&lt;/b&gt;&lt;/font&gt;" style="rounded=1;whiteSpace=wrap;html=1;fillColor=#fff2cc;strokeColor=#d6b656;" parent="1" vertex="1">
          <mxGeometry x="80" y="400" width="170" height="38" as="geometry" />
        </mxCell>
        <mxCell id="5i8vRmKeqVwwdkVwR9yD-10" style="edgeStyle=orthogonalEdgeStyle;rounded=0;orthogonalLoop=1;jettySize=auto;html=1;entryX=0;entryY=0.5;entryDx=0;entryDy=0;" parent="1" source="IHbQ26XFbmx4IzHMSujC-14" target="5i8vRmKeqVwwdkVwR9yD-4" edge="1">
          <mxGeometry relative="1" as="geometry" />
        </mxCell>
        <mxCell id="IHbQ26XFbmx4IzHMSujC-14" value="&lt;font style=&quot;font-size: 16px;&quot; color=&quot;#000000&quot;&gt;&lt;b style=&quot;&quot;&gt;crm_cust_info&lt;/b&gt;&lt;/font&gt;" style="rounded=1;whiteSpace=wrap;html=1;fillColor=#fff2cc;strokeColor=#d6b656;" parent="1" vertex="1">
          <mxGeometry x="80" y="460" width="170" height="38" as="geometry" />
        </mxCell>
        <mxCell id="5i8vRmKeqVwwdkVwR9yD-11" style="edgeStyle=orthogonalEdgeStyle;rounded=0;orthogonalLoop=1;jettySize=auto;html=1;entryX=0;entryY=0.5;entryDx=0;entryDy=0;" parent="1" source="IHbQ26XFbmx4IzHMSujC-15" target="5i8vRmKeqVwwdkVwR9yD-5" edge="1">
          <mxGeometry relative="1" as="geometry" />
        </mxCell>
        <mxCell id="IHbQ26XFbmx4IzHMSujC-15" value="&lt;font style=&quot;font-size: 16px;&quot; color=&quot;#000000&quot;&gt;&lt;b style=&quot;&quot;&gt;crm_prd_info&lt;/b&gt;&lt;/font&gt;" style="rounded=1;whiteSpace=wrap;html=1;fillColor=#fff2cc;strokeColor=#d6b656;" parent="1" vertex="1">
          <mxGeometry x="80" y="520" width="170" height="38" as="geometry" />
        </mxCell>
        <mxCell id="5i8vRmKeqVwwdkVwR9yD-14" style="edgeStyle=orthogonalEdgeStyle;rounded=0;orthogonalLoop=1;jettySize=auto;html=1;" parent="1" source="IHbQ26XFbmx4IzHMSujC-19" target="5i8vRmKeqVwwdkVwR9yD-6" edge="1">
          <mxGeometry relative="1" as="geometry" />
        </mxCell>
        <mxCell id="IHbQ26XFbmx4IzHMSujC-19" value="&lt;b style=&quot;color: rgb(0, 0, 0); font-size: 16px;&quot;&gt;erp_px_cat_g1v2&lt;/b&gt;" style="rounded=1;whiteSpace=wrap;html=1;fillColor=#fff2cc;strokeColor=#d6b656;" parent="1" vertex="1">
          <mxGeometry x="80" y="730" width="170" height="38" as="geometry" />
        </mxCell>
        <mxCell id="5i8vRmKeqVwwdkVwR9yD-13" style="edgeStyle=orthogonalEdgeStyle;rounded=0;orthogonalLoop=1;jettySize=auto;html=1;entryX=0;entryY=0.5;entryDx=0;entryDy=0;" parent="1" source="IHbQ26XFbmx4IzHMSujC-20" target="5i8vRmKeqVwwdkVwR9yD-7" edge="1">
          <mxGeometry relative="1" as="geometry" />
        </mxCell>
        <mxCell id="IHbQ26XFbmx4IzHMSujC-20" value="&lt;b style=&quot;color: rgb(0, 0, 0); font-size: 16px;&quot;&gt;erp_loc_a101&lt;/b&gt;" style="rounded=1;whiteSpace=wrap;html=1;fillColor=#fff2cc;strokeColor=#d6b656;" parent="1" vertex="1">
          <mxGeometry x="80" y="670" width="170" height="38" as="geometry" />
        </mxCell>
        <mxCell id="5i8vRmKeqVwwdkVwR9yD-12" style="edgeStyle=orthogonalEdgeStyle;rounded=0;orthogonalLoop=1;jettySize=auto;html=1;entryX=0;entryY=0.5;entryDx=0;entryDy=0;" parent="1" source="IHbQ26XFbmx4IzHMSujC-21" target="5i8vRmKeqVwwdkVwR9yD-8" edge="1">
          <mxGeometry relative="1" as="geometry" />
        </mxCell>
        <mxCell id="IHbQ26XFbmx4IzHMSujC-21" value="&lt;font style=&quot;font-size: 16px;&quot; color=&quot;#000000&quot;&gt;&lt;b style=&quot;&quot;&gt;erp_cust_az12&lt;/b&gt;&lt;/font&gt;" style="rounded=1;whiteSpace=wrap;html=1;fillColor=#fff2cc;strokeColor=#d6b656;" parent="1" vertex="1">
          <mxGeometry x="80" y="610" width="170" height="38" as="geometry" />
        </mxCell>
        <mxCell id="5i8vRmKeqVwwdkVwR9yD-1" value="" style="rounded=0;whiteSpace=wrap;html=1;fillColor=none;strokeColor=#666666;fontColor=#333333;" parent="1" vertex="1">
          <mxGeometry x="330" y="370" width="190" height="430" as="geometry" />
        </mxCell>
        <mxCell id="5i8vRmKeqVwwdkVwR9yD-2" value="&lt;font style=&quot;color: rgb(0, 0, 0); font-size: 20px;&quot;&gt;&lt;b&gt;Silver Layer&lt;/b&gt;&lt;/font&gt;" style="rounded=1;whiteSpace=wrap;html=1;fillColor=#f5f5f5;strokeColor=#666666;fontColor=#333333;" parent="1" vertex="1">
          <mxGeometry x="330" y="300" width="190" height="60" as="geometry" />
        </mxCell>
        <mxCell id="P8SxKNmZ3u3KztpiFWJL-16" style="rounded=0;orthogonalLoop=1;jettySize=auto;html=1;exitX=1;exitY=0.5;exitDx=0;exitDy=0;jumpStyle=gap;entryX=0;entryY=0.5;entryDx=0;entryDy=0;" edge="1" parent="1" source="5i8vRmKeqVwwdkVwR9yD-3" target="P8SxKNmZ3u3KztpiFWJL-3">
          <mxGeometry relative="1" as="geometry">
            <mxPoint x="570" y="440" as="targetPoint" />
          </mxGeometry>
        </mxCell>
        <mxCell id="5i8vRmKeqVwwdkVwR9yD-3" value="&lt;font style=&quot;font-size: 16px;&quot; color=&quot;#000000&quot;&gt;&lt;b style=&quot;&quot;&gt;crm_sales_detalis&lt;/b&gt;&lt;/font&gt;" style="rounded=1;whiteSpace=wrap;html=1;fillColor=#f5f5f5;strokeColor=#666666;fontColor=#333333;" parent="1" vertex="1">
          <mxGeometry x="340" y="400" width="170" height="38" as="geometry" />
        </mxCell>
        <mxCell id="P8SxKNmZ3u3KztpiFWJL-17" style="rounded=0;orthogonalLoop=1;jettySize=auto;html=1;entryX=0;entryY=0.5;entryDx=0;entryDy=0;exitX=1;exitY=0.5;exitDx=0;exitDy=0;jumpStyle=gap;" edge="1" parent="1" source="5i8vRmKeqVwwdkVwR9yD-4" target="P8SxKNmZ3u3KztpiFWJL-4">
          <mxGeometry relative="1" as="geometry" />
        </mxCell>
        <mxCell id="5i8vRmKeqVwwdkVwR9yD-4" value="&lt;font style=&quot;font-size: 16px;&quot; color=&quot;#000000&quot;&gt;&lt;b style=&quot;&quot;&gt;crm_cust_info&lt;/b&gt;&lt;/font&gt;" style="rounded=1;whiteSpace=wrap;html=1;fillColor=#f5f5f5;strokeColor=#666666;fontColor=#333333;" parent="1" vertex="1">
          <mxGeometry x="340" y="460" width="170" height="38" as="geometry" />
        </mxCell>
        <mxCell id="P8SxKNmZ3u3KztpiFWJL-18" style="rounded=0;orthogonalLoop=1;jettySize=auto;html=1;entryX=0;entryY=0.5;entryDx=0;entryDy=0;exitX=1;exitY=0.5;exitDx=0;exitDy=0;jumpStyle=gap;" edge="1" parent="1" source="5i8vRmKeqVwwdkVwR9yD-5" target="P8SxKNmZ3u3KztpiFWJL-5">
          <mxGeometry relative="1" as="geometry" />
        </mxCell>
        <mxCell id="5i8vRmKeqVwwdkVwR9yD-5" value="&lt;font style=&quot;font-size: 16px;&quot; color=&quot;#000000&quot;&gt;&lt;b style=&quot;&quot;&gt;crm_prd_info&lt;/b&gt;&lt;/font&gt;" style="rounded=1;whiteSpace=wrap;html=1;fillColor=#f5f5f5;strokeColor=#666666;fontColor=#333333;" parent="1" vertex="1">
          <mxGeometry x="340" y="520" width="170" height="38" as="geometry" />
        </mxCell>
        <mxCell id="P8SxKNmZ3u3KztpiFWJL-19" style="rounded=0;orthogonalLoop=1;jettySize=auto;html=1;entryX=0;entryY=0.5;entryDx=0;entryDy=0;exitX=1;exitY=0.5;exitDx=0;exitDy=0;jumpStyle=gap;" edge="1" parent="1" source="5i8vRmKeqVwwdkVwR9yD-6" target="P8SxKNmZ3u3KztpiFWJL-5">
          <mxGeometry relative="1" as="geometry" />
        </mxCell>
        <mxCell id="5i8vRmKeqVwwdkVwR9yD-6" value="&lt;b style=&quot;color: rgb(0, 0, 0); font-size: 16px;&quot;&gt;erp_px_cat_g1v2&lt;/b&gt;" style="rounded=1;whiteSpace=wrap;html=1;fillColor=#f5f5f5;strokeColor=#666666;fontColor=#333333;" parent="1" vertex="1">
          <mxGeometry x="340" y="730" width="170" height="38" as="geometry" />
        </mxCell>
        <mxCell id="P8SxKNmZ3u3KztpiFWJL-20" style="rounded=0;orthogonalLoop=1;jettySize=auto;html=1;entryX=0;entryY=0.5;entryDx=0;entryDy=0;exitX=1;exitY=0.5;exitDx=0;exitDy=0;jumpStyle=gap;" edge="1" parent="1" source="5i8vRmKeqVwwdkVwR9yD-7" target="P8SxKNmZ3u3KztpiFWJL-4">
          <mxGeometry relative="1" as="geometry" />
        </mxCell>
        <mxCell id="5i8vRmKeqVwwdkVwR9yD-7" value="&lt;b style=&quot;color: rgb(0, 0, 0); font-size: 16px;&quot;&gt;erp_loc_a101&lt;/b&gt;" style="rounded=1;whiteSpace=wrap;html=1;fillColor=#f5f5f5;strokeColor=#666666;fontColor=#333333;" parent="1" vertex="1">
          <mxGeometry x="340" y="670" width="170" height="38" as="geometry" />
        </mxCell>
        <mxCell id="P8SxKNmZ3u3KztpiFWJL-21" style="rounded=0;orthogonalLoop=1;jettySize=auto;html=1;entryX=0;entryY=0.5;entryDx=0;entryDy=0;exitX=1;exitY=0.5;exitDx=0;exitDy=0;jumpStyle=gap;" edge="1" parent="1" source="5i8vRmKeqVwwdkVwR9yD-8" target="P8SxKNmZ3u3KztpiFWJL-4">
          <mxGeometry relative="1" as="geometry" />
        </mxCell>
        <mxCell id="5i8vRmKeqVwwdkVwR9yD-8" value="&lt;font style=&quot;font-size: 16px;&quot; color=&quot;#000000&quot;&gt;&lt;b style=&quot;&quot;&gt;erp_cust_az12&lt;/b&gt;&lt;/font&gt;" style="rounded=1;whiteSpace=wrap;html=1;fillColor=#f5f5f5;strokeColor=#666666;fontColor=#333333;" parent="1" vertex="1">
          <mxGeometry x="340" y="610" width="170" height="38" as="geometry" />
        </mxCell>
        <mxCell id="P8SxKNmZ3u3KztpiFWJL-1" value="" style="rounded=0;whiteSpace=wrap;html=1;fillColor=none;strokeColor=#B09500;fontColor=#000000;" vertex="1" parent="1">
          <mxGeometry x="580" y="370" width="190" height="430" as="geometry" />
        </mxCell>
        <mxCell id="P8SxKNmZ3u3KztpiFWJL-2" value="&lt;font style=&quot;color: rgb(0, 0, 0); font-size: 20px;&quot;&gt;&lt;b&gt;Gold Layer&lt;/b&gt;&lt;/font&gt;" style="rounded=1;whiteSpace=wrap;html=1;fillColor=#e3c800;strokeColor=#B09500;fontColor=#000000;" vertex="1" parent="1">
          <mxGeometry x="580" y="300" width="190" height="60" as="geometry" />
        </mxCell>
        <mxCell id="P8SxKNmZ3u3KztpiFWJL-3" value="&lt;font style=&quot;font-size: 16px;&quot; color=&quot;#000000&quot;&gt;&lt;b style=&quot;&quot;&gt;fact_sales&lt;/b&gt;&lt;/font&gt;" style="rounded=1;whiteSpace=wrap;html=1;fillColor=#e3c800;strokeColor=#B09500;fontColor=#000000;" vertex="1" parent="1">
          <mxGeometry x="590" y="422" width="170" height="38" as="geometry" />
        </mxCell>
        <mxCell id="P8SxKNmZ3u3KztpiFWJL-4" value="&lt;font style=&quot;font-size: 16px;&quot; color=&quot;#000000&quot;&gt;&lt;b style=&quot;&quot;&gt;dim_customers&lt;/b&gt;&lt;/font&gt;" style="rounded=1;whiteSpace=wrap;html=1;fillColor=#e3c800;strokeColor=#B09500;fontColor=#000000;" vertex="1" parent="1">
          <mxGeometry x="590" y="540" width="170" height="38" as="geometry" />
        </mxCell>
        <mxCell id="P8SxKNmZ3u3KztpiFWJL-5" value="&lt;font style=&quot;font-size: 16px;&quot; color=&quot;#000000&quot;&gt;&lt;b style=&quot;&quot;&gt;dim_products&lt;/b&gt;&lt;/font&gt;" style="rounded=1;whiteSpace=wrap;html=1;fillColor=#e3c800;strokeColor=#B09500;fontColor=#000000;" vertex="1" parent="1">
          <mxGeometry x="590" y="661" width="170" height="38" as="geometry" />
        </mxCell>
      </root>
    </mxGraphModel>
  </diagram>
</mxfile>
